<svg xmlns="http://www.w3.org/2000/svg" viewBox="0 0 200 200"><defs><style>.cls-1{fill:none;}</style></defs><g id="Layer_2" data-name="Layer 2"><g id="Layer_3" data-name="Layer 3"><rect class="cls-1" width="200" height="200"/><path d="M124.5,147H66.31l-.47-1.33a11.5,11.5,0,0,0-21.68,0L43.69,147H30.5V93.81l2.86,1.35A29.16,29.16,0,0,0,46,98,29.52,29.52,0,0,0,75.2,64.28L74.87,62H124.5Zm-55.43-4H120.5V66H79.41c.06.83.09,1.67.09,2.5A33.54,33.54,0,0,1,34.5,100v43h6.43a15.5,15.5,0,0,1,28.14,0Z"/><path d="M187.5,147H165.31l-.47-1.33a11.5,11.5,0,0,0-21.68,0l-.47,1.33H120.5V89h50.16l16.84,19.25Zm-19.43-4H183.5V109.75L168.84,93H124.5v50h15.43a15.5,15.5,0,0,1,28.14,0Z"/><path d="M55,165a15.51,15.51,0,0,1-15.5-15.5,15.23,15.23,0,0,1,.89-5.17A15.5,15.5,0,1,1,55,165Zm0-27a11.5,11.5,0,0,0-10.84,7.67,11.22,11.22,0,0,0-.66,3.83A11.5,11.5,0,1,0,55,138Z"/><path d="M154,165a15.51,15.51,0,0,1-15.5-15.5,15.23,15.23,0,0,1,.89-5.17A15.5,15.5,0,1,1,154,165Zm0-27a11.5,11.5,0,0,0-10.84,7.67,11.22,11.22,0,0,0-.66,3.83A11.5,11.5,0,1,0,154,138Z"/><path d="M46,102a33.23,33.23,0,0,1-14.36-3.22A33.51,33.51,0,1,1,79.16,63.72,33.52,33.52,0,0,1,46,102Zm0-63A29.5,29.5,0,0,0,33.36,95.16,29.16,29.16,0,0,0,46,98a29.5,29.5,0,1,0,0-59Z"/><polygon points="58.63 82.9 39.93 72.75 39.5 55.05 43.5 54.95 43.87 70.34 60.54 79.39 58.63 82.9"/></g></g></svg>